<svg width="127" height="127" viewBox="0 0 127 127" fill="none" xmlns="http://www.w3.org/2000/svg">
<circle cx="63.5" cy="63.5" r="63.5" fill="#972472"/>
<path d="M63.6153 97.6596C91.5693 97.6596 114.231 95.6657 114.231 93.2062C114.231 90.7467 91.5693 88.7528 63.6153 88.7528C35.6612 88.7528 13 90.7467 13 93.2062C13 95.6657 35.6612 97.6596 63.6153 97.6596Z" fill="#F2D4C9"/>
<path d="M72.8573 53.461C72.8573 53.461 71.6123 52.6949 71.2771 51.8808C70.9419 51.0189 71.4686 50.7794 71.8038 51.1625C72.139 51.5456 73.8629 53.2216 73.8629 53.2216" fill="#EDA370"/>
<path d="M74.9641 54.0834C74.9641 54.0834 72.9529 52.2638 71.9952 51.7849C71.0375 51.306 70.3192 52.9342 70.2234 54.2271C70.1277 55.5679 73.9585 55.6158 73.9585 55.6158L74.9641 54.0834Z" fill="#EDA370"/>
<path d="M41.4922 48.6724C41.4922 48.6724 42.6414 48.2415 44.94 48.1457C46.7117 48.1457 47.0469 48.1457 47.0469 48.1457C47.0469 48.1457 46.616 49.5823 44.4132 49.5823C42.3541 49.7738 41.8753 50.109 41.8753 50.109L41.4922 48.6724Z" fill="#CE804A"/>
<path d="M30.3348 30.5715C30.3827 28.4167 28.4673 26.6449 26.3603 27.1237C25.7378 27.2674 25.0674 27.6026 24.4928 28.3209C22.1464 31.0504 24.6843 35.5995 28.0363 34.6418C29.856 34.1151 30.2869 32.1996 30.3348 30.5715Z" fill="white"/>
<path d="M89.7608 23.5324C89.7608 23.5324 86.3609 23.4845 85.4032 25.8788C84.4455 28.3209 85.6905 29.0871 84.4455 30.4279C83.2004 31.7687 84.1103 35.1207 87.1271 35.1207C90.5748 35.1207 89.9523 32.4391 93.4001 32.4391C96.8479 32.4391 95.6507 23.5324 89.7608 23.5324Z" fill="white"/>
<path d="M76.8319 82.815H44.7005V92.8231H76.8319V82.815Z" fill="#E46341"/>
<path d="M31.3878 37.2755C29.7597 36.7966 28.1316 37.9938 28.1316 39.6698C28.0837 41.3936 28.4189 43.8358 29.6639 47.0442C32.4892 54.227 32.5849 54.7059 35.0271 52.982C36.0327 52.2637 34.4046 43.0696 33.1117 38.9515C32.8723 38.1853 32.2497 37.5149 31.3878 37.2755Z" fill="#EDA370"/>
<path d="M44.9397 48.2414L43.168 49.7258C43.168 49.7258 32.4415 53.9398 31.9627 50.6836C31.5317 47.4273 44.9397 48.2414 44.9397 48.2414Z" fill="#CE804A"/>
<path d="M89.5693 36.4136C91.2932 35.7432 93.1607 36.9404 93.3523 38.7601C93.5438 40.6276 93.4002 43.3092 92.2988 46.9006C89.8087 54.9454 89.7608 55.4722 86.9835 53.8441C85.7863 53.1737 86.8398 42.974 87.8454 38.4248C88.0848 37.515 88.7074 36.7488 89.5693 36.4136Z" fill="#EDA370"/>
<path d="M74.0063 53.5568L74.0542 54.8976C74.0542 54.8976 89.9044 57.4355 89.7129 53.5089C89.5692 49.5823 74.0063 53.5568 74.0063 53.5568Z" fill="#EDA370"/>
<path d="M33.0163 91.5301C33.0163 91.5301 36.4162 91.7695 38.7147 93.0624C39.5288 93.8765 37.8049 94.4511 35.9373 93.8765C34.0698 93.3019 32.8247 93.9723 32.5853 92.7272C32.4895 91.9611 33.0163 91.5301 33.0163 91.5301Z" fill="#EDA370"/>
<path d="M19.2251 91.5301C19.2251 91.5301 22.625 91.7695 24.9236 93.0624C25.7376 93.8765 24.0137 94.4511 22.1462 93.8765C20.2786 93.3019 19.0336 93.9723 18.7942 92.7272C18.6505 91.9611 19.2251 91.5301 19.2251 91.5301Z" fill="#EDA370"/>
<path d="M35.6501 60.3086V75.8715C35.6501 77.0686 34.6923 78.0263 33.4952 78.0263C32.4896 78.0263 31.6277 77.3559 31.3882 76.3982L27.7489 61.7452L35.6501 60.3086Z" fill="#EDA370"/>
<path d="M35.65 77.0208L34.8838 92.6316H32.9684L31.6754 77.1166C31.5797 75.9673 32.4895 74.9138 33.6866 74.9138C34.8359 74.9138 35.7457 75.8715 35.65 77.0208Z" fill="#EDA370"/>
<path d="M27.7488 61.3621L25.2108 76.4461C24.9235 77.5954 23.7742 78.3616 22.625 78.0743C21.6673 77.8348 20.949 77.0208 20.949 76.0152L20.4222 61.3621H27.7488Z" fill="#EDA370"/>
<path d="M24.9717 77.6434L20.7577 92.6795L18.8902 92.2485L21.0929 76.8293C21.2366 75.6801 22.3859 74.866 23.5351 75.1533C24.5886 75.3927 25.259 76.542 24.9717 77.6434Z" fill="#EDA370"/>
<path d="M91.6282 34.2109C91.6282 34.2109 87.0312 36.1742 87.8931 41.5853C88.4677 45.1288 89.2818 52.0723 91.2451 57.2439C92.2507 59.8298 95.1718 63.1818 97.8055 62.272L103.887 60.2129C106.616 59.2552 108.053 56.2862 107.047 53.5567C104.988 47.9062 101.732 39.0952 100.583 36.6531C98.859 32.918 91.6282 34.2109 91.6282 34.2109Z" fill="#D7D4D4"/>
<path d="M91.2452 57.244V74.1955C91.2452 75.4884 92.2987 76.5419 93.5916 76.5419C94.693 76.5419 95.6028 75.8236 95.8902 74.7702L99.8647 57.244H91.2452Z" fill="#EDA370"/>
<path d="M91.2453 75.4405L92.0594 92.4879H94.1663L95.6029 75.5363C95.6987 74.2434 94.6931 73.142 93.448 73.142C92.203 73.1899 91.1974 74.1955 91.2453 75.4405Z" fill="#EDA370"/>
<path d="M93.831 91.2429C93.831 91.2429 90.048 91.5302 87.4622 92.9668C86.5524 93.8766 88.4678 94.4991 90.5748 93.8766C92.6817 93.2541 94.0704 93.9724 94.3099 92.5837C94.4535 91.7696 93.831 91.2429 93.831 91.2429Z" fill="#EDA370"/>
<path d="M98.8593 57.4355L99.8649 74.1955C99.8649 75.4885 100.918 76.5419 102.211 76.5419C103.313 76.5419 104.222 75.8237 104.51 74.7702L107.335 55.6158L98.8593 57.4355Z" fill="#EDA370"/>
<path d="M99.865 75.4405L100.679 92.4879H102.786L104.223 75.5363C104.318 74.2434 103.313 73.142 102.068 73.142C100.775 73.1899 99.8171 74.1955 99.865 75.4405Z" fill="#EDA370"/>
<path d="M92.9689 46.8049L85.6424 46.9007C85.6424 46.9007 85.7861 36.7489 90.3352 36.9404C94.8844 37.0841 92.9689 46.8049 92.9689 46.8049Z" fill="white"/>
<path d="M25.4117 37.2481L29.9863 38.6641L31.6005 33.4492L27.026 32.0332L25.4117 37.2481Z" fill="#EDA370"/>
<path d="M28.1319 35.5995C28.1319 35.5995 33.1599 36.1741 34.0218 41.1064C34.8838 46.0865 35.6499 61.793 35.6499 61.793H20.4222C20.4222 61.793 20.7096 44.0753 21.0926 40.3402C21.4757 36.653 28.1319 35.5995 28.1319 35.5995Z" fill="#EDA370"/>
<path d="M27.3178 33.1095C27.3178 33.1095 27.5094 35.839 30.8614 35.839L31.2923 34.4503L27.3178 33.1095Z" fill="#CE804A"/>
<path d="M20.4223 53.7484C20.4223 53.7484 19.6083 60.1172 19.9914 67.5395C20.4223 74.9618 20.4223 77.0687 20.4223 77.0687L18.5069 88.3219H22.7208C22.7208 88.3219 25.4982 79.0799 26.2644 75.1054C27.0306 71.1309 28.0841 64.0917 28.0841 64.0917C28.0841 64.0917 30.5741 75.7758 30.9572 78.0265C31.3403 80.2771 31.867 88.3219 31.867 88.3219H35.7937C35.7937 88.3219 35.7937 77.5955 36.2246 68.5451C36.6556 59.4946 35.2669 54.323 35.2669 54.323L20.4223 53.7484Z" fill="#0F63E7"/>
<path d="M19.7521 88.8008C19.7521 88.8008 20.9013 82.0489 21.7154 77.2124C22.5773 72.1844 21.9548 53.2216 21.9548 53.2216" stroke="#452A32" stroke-width="0.5043" stroke-miterlimit="10" stroke-linecap="round" stroke-linejoin="round"/>
<path d="M18.4111 86.8373H24.1095" stroke="#452A32" stroke-width="0.5043" stroke-miterlimit="10" stroke-linecap="round" stroke-linejoin="round"/>
<path d="M28.0363 64.0438L30.8136 63.1819" stroke="#452A32" stroke-width="0.5043" stroke-miterlimit="10" stroke-linecap="round" stroke-linejoin="round"/>
<path d="M33.16 88.8008C33.16 88.8008 32.8726 79.8461 31.6755 73.4773C30.4784 67.1085 29.4249 63.6129 29.4249 63.6129" stroke="#452A32" stroke-width="0.5043" stroke-miterlimit="10" stroke-linecap="round" stroke-linejoin="round"/>
<path d="M31.2925 87.0769L36.1769 86.7896" stroke="#452A32" stroke-width="0.5043" stroke-miterlimit="10" stroke-linecap="round" stroke-linejoin="round"/>
<path d="M19.7519 62.5114C19.7519 62.8945 19.4646 63.1818 19.0815 63.1818C18.6984 63.1818 18.4111 62.8945 18.4111 62.5114C18.4111 62.1283 18.6984 61.841 19.0815 61.841C19.4167 61.841 19.7519 62.1283 19.7519 62.5114Z" fill="white"/>
<path d="M21.0929 62.4634C21.0929 62.8465 20.8056 63.1338 20.4225 63.1338C20.0394 63.1338 19.7521 62.8465 19.7521 62.4634C19.7521 62.0803 20.0394 61.793 20.4225 61.793C20.7577 61.793 21.0929 62.0803 21.0929 62.4634Z" fill="white"/>
<path d="M22.3855 62.4634C22.3855 62.8465 22.0982 63.1338 21.7151 63.1338C21.332 63.1338 21.0447 62.8465 21.0447 62.4634C21.0447 62.0803 21.332 61.793 21.7151 61.793C22.0503 61.793 22.3855 62.0803 22.3855 62.4634Z" fill="white"/>
<path d="M23.7263 62.4156C23.7263 62.7987 23.439 63.086 23.0559 63.086C22.6728 63.086 22.3855 62.7987 22.3855 62.4156C22.3855 62.0325 22.6728 61.7452 23.0559 61.7452C23.3911 61.7452 23.7263 62.0325 23.7263 62.4156Z" fill="white"/>
<path d="M25.0672 62.3678C25.0672 62.7509 24.7799 63.0382 24.3968 63.0382C24.0138 63.0382 23.7264 62.7509 23.7264 62.3678C23.7264 61.9847 24.0138 61.6974 24.3968 61.6974C24.732 61.7453 25.0672 62.0326 25.0672 62.3678Z" fill="white"/>
<path d="M26.4081 62.3678C26.4081 62.7509 26.1207 63.0382 25.7377 63.0382C25.3546 63.0382 25.0673 62.7509 25.0673 62.3678C25.0673 61.9847 25.3546 61.6974 25.7377 61.6974C26.0729 61.6974 26.4081 61.9847 26.4081 62.3678Z" fill="white"/>
<path d="M27.7489 62.3198C27.7489 62.7029 27.4616 62.9902 27.0785 62.9902C26.6954 62.9902 26.4081 62.7029 26.4081 62.3198C26.4081 61.9367 26.6954 61.6494 27.0785 61.6494C27.4616 61.6494 27.7489 61.9846 27.7489 62.3198Z" fill="white"/>
<path d="M29.0897 62.3198C29.0897 62.7029 28.8024 62.9902 28.4193 62.9902C28.0362 62.9902 27.7489 62.7029 27.7489 62.3198C27.7489 61.9367 28.0362 61.6494 28.4193 61.6494C28.8024 61.6494 29.0897 61.9367 29.0897 62.3198Z" fill="white"/>
<path d="M30.4302 62.272C30.4302 62.6551 30.1429 62.9424 29.7598 62.9424C29.3767 62.9424 29.0894 62.6551 29.0894 62.272C29.0894 61.8889 29.3767 61.6016 29.7598 61.6016C30.1429 61.6016 30.4302 61.8889 30.4302 62.272Z" fill="white"/>
<path d="M31.771 62.272C31.771 62.6551 31.4837 62.9424 31.1006 62.9424C30.7176 62.9424 30.4302 62.6551 30.4302 62.272C30.4302 61.8889 30.7176 61.6016 31.1006 61.6016C31.4837 61.6016 31.771 61.8889 31.771 62.272Z" fill="white"/>
<path d="M33.16 62.2242C33.16 62.6073 32.8727 62.8946 32.4896 62.8946C32.1065 62.8946 31.8192 62.6073 31.8192 62.2242C31.8192 61.8411 32.1065 61.5538 32.4896 61.5538C32.8248 61.5538 33.1121 61.8411 33.16 62.2242Z" fill="white"/>
<path d="M34.5006 62.1761C34.5006 62.5592 34.2133 62.8465 33.8302 62.8465C33.4471 62.8465 33.1598 62.5592 33.1598 62.1761C33.1598 61.793 33.4471 61.5057 33.8302 61.5057C34.1654 61.5057 34.4527 61.8409 34.5006 62.1761Z" fill="white"/>
<path d="M35.8414 62.1761C35.8414 62.5592 35.5541 62.8465 35.171 62.8465C34.7879 62.8465 34.5006 62.5592 34.5006 62.1761C34.5006 61.793 34.7879 61.5057 35.171 61.5057C35.5062 61.5057 35.7935 61.793 35.8414 62.1761Z" fill="white"/>
<path d="M37.1822 62.1283C37.1822 62.5114 36.8949 62.7988 36.5118 62.7988C36.1287 62.7988 35.8414 62.5114 35.8414 62.1283C35.8414 61.7453 36.1287 61.4579 36.5118 61.4579C36.847 61.4579 37.1822 61.7453 37.1822 62.1283Z" fill="white"/>
<path d="M19.0336 51.737C19.0815 51.8806 19.0815 52.0243 19.1294 52.2158H36.1767C35.7458 51.5454 35.5542 50.875 35.5063 50.1567H18.7942C18.8421 50.6835 18.89 51.2102 19.0336 51.737Z" fill="#E46341"/>
<path d="M18.6503 56.2862H37.3258C37.2779 55.5679 37.1821 54.8975 37.0385 54.2271H19.1292C19.0334 54.8975 18.8419 55.6158 18.6503 56.2862Z" fill="#E46341"/>
<path d="M19.1293 54.2271H37.0864C36.8949 53.5088 36.6555 52.8384 36.3203 52.3595C36.2724 52.3117 36.2724 52.2638 36.2245 52.2159H19.1293C19.225 52.8384 19.225 53.5088 19.1293 54.2271Z" fill="#F7BCC0"/>
<path d="M18.4589 62.5593L37.1822 62.2241L37.3737 60.4044H17.7885C17.7885 61.2664 17.8363 61.9847 18.4589 62.5593Z" fill="#F7BCC0"/>
<path d="M18.1235 58.3453H37.4215C37.4215 57.6749 37.4215 57.0045 37.3736 56.2862H18.6982C18.5066 56.9566 18.3151 57.6749 18.1235 58.3453Z" fill="#F7BCC0"/>
<path d="M17.7885 60.3566H37.3259C37.3737 59.7819 37.4216 59.0637 37.4216 58.2975H18.1237C17.9321 59.0637 17.8363 59.7341 17.7885 60.3566Z" fill="#E46341"/>
<path d="M19.4166 46.0386H35.6978C35.7457 45.3682 35.6978 44.6978 35.602 43.9795H19.9913C19.7997 44.7457 19.6082 45.4161 19.4166 46.0386Z" fill="#F7BCC0"/>
<path d="M18.7942 50.1567H35.4584C35.4106 49.4863 35.4584 48.8159 35.5063 48.0977H18.9378C18.8421 48.8159 18.7942 49.4863 18.7942 50.1567Z" fill="#F7BCC0"/>
<path d="M33.1598 37.8501H21.6193C21.2362 38.329 20.9489 38.9515 20.8531 39.6698C20.8531 39.7655 20.8531 39.8134 20.8052 39.9092H34.309C33.9738 39.0951 33.5907 38.4247 33.1598 37.8501Z" fill="#E46341"/>
<path d="M20.8054 39.9092C20.7096 40.6275 20.566 41.2979 20.4702 41.9683H35.1233C34.8838 41.2021 34.6444 40.5317 34.3571 39.9092H20.8054Z" fill="#F7BCC0"/>
<path d="M30.7177 36.27C28.9459 36.7488 25.8812 35.7432 25.8812 35.7432C25.8812 35.7432 23.0081 36.0305 21.6194 37.8502H33.1599C32.4895 37.0361 31.6754 36.4615 30.7177 36.27Z" fill="#F7BCC0"/>
<path d="M19.9911 44.0274H35.6498C35.6019 43.6443 35.5061 43.2612 35.4104 42.8302C35.3146 42.5429 35.2188 42.2556 35.1231 41.9683H20.47C20.3264 42.6865 20.1348 43.3569 19.9911 44.0274Z" fill="#E46341"/>
<path d="M18.9376 48.0977H35.5061C35.554 47.4273 35.6498 46.7569 35.6977 46.0386H19.4165C19.2249 46.7569 19.0813 47.4273 18.9376 48.0977Z" fill="#E46341"/>
<path d="M25.3547 36.5573C23.7266 36.0784 22.0984 37.2756 22.0984 38.9516C22.0506 40.6754 22.8167 42.974 23.6308 46.326C25.0674 52.0723 26.5518 53.9877 28.994 52.2638C29.9996 51.5455 28.3715 42.3514 27.0786 38.2333C26.8391 37.4192 26.1687 36.7967 25.3547 36.5573Z" fill="#EDA370"/>
<path d="M39.9117 48.6724L40.1511 49.8695C40.1511 49.8695 26.6952 55.3764 26.0727 51.8328C25.4023 48.2893 39.9117 48.6724 39.9117 48.6724Z" fill="#EDA370"/>
<path d="M93.3988 30.767L88.3806 32.52L90.3862 38.2616L95.4044 36.5086L93.3988 30.767Z" fill="#EDA370"/>
<path d="M93.017 31.7687C93.017 31.7687 93.1127 34.7855 89.3776 35.408L88.8509 33.8278L93.017 31.7687Z" fill="#CE804A"/>
<path d="M93.4483 28.4646C93.4483 30.5237 93.3525 33.301 90.3357 33.9236C88.3724 34.3545 86.409 32.9658 86.1696 31.0025C86.026 30.0448 86.1217 29.0871 86.1217 28.273C86.1217 25.9266 88.0372 24.0112 90.2399 24.2985C92.1075 24.5858 93.4483 26.4534 93.4483 28.4646Z" fill="#EDA370"/>
<path d="M92.1075 29.7096C91.6765 30.5237 91.8201 31.4335 92.3948 31.7208C92.9694 32.0081 93.7835 31.6251 94.2144 30.811C94.6454 29.9969 94.5017 29.0871 93.9271 28.7998C93.3525 28.4646 92.4905 28.8956 92.1075 29.7096Z" fill="#EDA370"/>
<path d="M26.6954 29.3744C26.6954 31.242 26.7433 33.6842 28.9939 34.594C29.8558 34.9771 31.0051 35.0728 31.867 34.6898C34.1177 33.732 34.0219 31.0983 34.0219 29.1829C34.0219 26.8365 32.1065 24.9211 29.9037 25.2084C28.0362 25.4957 26.6954 27.3153 26.6954 29.3744Z" fill="#EDA370"/>
<path d="M28.036 30.5716C28.467 31.3856 28.3233 32.2955 27.7487 32.5828C27.1741 32.8701 26.36 32.487 25.9291 31.673C25.4981 30.8589 25.6417 29.9491 26.2164 29.6617C26.791 29.3744 27.6051 29.7575 28.036 30.5716Z" fill="#EDA370"/>
<path d="M54.3733 74.2912C54.3733 74.2912 50.4946 70.3646 51.596 66.3901C52.6973 62.4155 47.5736 62.3198 52.5058 55.4721C51.6917 60.548 56.0493 61.6494 55.2353 66.3901C54.4212 71.1308 56.9592 74.2912 56.9592 74.2912H54.3733Z" fill="#56C7AB"/>
<path d="M62.2746 57.196C63.1844 62.8466 60.2155 64.331 58.2522 67.3957C56.2889 70.4604 57.6776 73.4293 57.6776 73.4293H61.6521C60.838 70.4125 60.9338 69.8379 62.4661 68.3055C63.9985 66.8211 65.866 61.6494 62.2746 57.196Z" fill="#56C7AB"/>
<path d="M55.6665 76.3983C55.6665 76.3983 52.937 72.1844 55.6665 66.9169C58.396 61.6974 50.3512 53.9399 57.8213 44.3148C57.0552 51.4019 63.8071 55.3286 60.6945 62.5114C57.534 69.7422 58.0129 76.3983 58.0129 76.3983H55.6665Z" fill="#37BD9C"/>
<path d="M61.7478 82.8149H52.027L50.3031 71.2266H63.5196L61.7478 82.8149Z" fill="#EDA370"/>
<path d="M63.5196 71.2266H50.3031V73.9561H63.5196V71.2266Z" fill="#E46341"/>
<path d="M84.8287 76.063C84.8287 73.6687 82.1949 73.4293 81.5724 71.2744C80.9499 69.1196 76.9754 68.7844 76.305 71.2744C75.5867 73.7645 73.3361 71.9927 72.2826 73.7645C71.1812 75.5363 73.384 76.4461 72.522 78.3615C71.6601 80.277 73.384 81.6178 73.384 81.6178H82.6738C81.9076 78.3137 84.8287 78.4094 84.8287 76.063Z" fill="#37BD9C"/>
<path d="M82.6737 92.8231H72.9529L71.229 81.2347H84.3976L82.6737 92.8231Z" fill="#0F63E7"/>
<path d="M73.0009 75.4405C73.0009 75.7757 72.7615 76.0151 72.4263 76.0151C72.0911 76.0151 71.8517 75.7757 71.8517 75.4405C71.8517 75.1053 72.0911 74.8658 72.4263 74.8658C72.7136 74.8658 73.0009 75.1053 73.0009 75.4405Z" fill="#E46341"/>
<path d="M78.7949 79.8939C78.7949 80.2291 78.5555 80.4685 78.2203 80.4685C77.8851 80.4685 77.6456 80.2291 77.6456 79.8939C77.6456 79.5587 77.8851 79.3193 78.2203 79.3193C78.5555 79.3193 78.7949 79.6066 78.7949 79.8939Z" fill="#E46341"/>
<path d="M77.4065 70.7477C77.4065 71.0829 77.1671 71.3224 76.8319 71.3224C76.4967 71.3224 76.2573 71.0829 76.2573 70.7477C76.2573 70.4125 76.4967 70.1731 76.8319 70.1731C77.1671 70.1731 77.4065 70.4125 77.4065 70.7477Z" fill="#E46341"/>
<path d="M81.5721 70.8913C81.5721 71.2265 81.3327 71.466 80.9975 71.466C80.6623 71.466 80.4229 71.2265 80.4229 70.8913C80.4229 70.5561 80.6623 70.3167 80.9975 70.3167C81.3327 70.3167 81.5721 70.5561 81.5721 70.8913Z" fill="#E46341"/>
<path d="M75.7302 77.6433C75.7302 77.9785 75.4908 78.2179 75.1556 78.2179C74.8204 78.2179 74.581 77.9785 74.581 77.6433C74.581 77.3081 74.8204 77.0687 75.1556 77.0687C75.4908 77.0687 75.7302 77.3081 75.7302 77.6433Z" fill="#E46341"/>
<path d="M80.4229 73.9561C80.4229 74.2913 80.1835 74.5307 79.8483 74.5307C79.5131 74.5307 79.2737 74.2913 79.2737 73.9561C79.2737 73.6209 79.5131 73.3815 79.8483 73.3815C80.1835 73.3815 80.4229 73.6209 80.4229 73.9561Z" fill="#E46341"/>
<path d="M82.5779 80.6121C82.2906 80.7079 81.9554 80.5164 81.8596 80.229C81.7639 79.9417 81.9554 79.6065 82.2427 79.5108C82.53 79.415 82.8652 79.6065 82.961 79.8938C83.0568 80.1812 82.8652 80.5164 82.5779 80.6121Z" fill="#E46341"/>
<path d="M83.7752 73.7166C83.7752 74.0518 83.5358 74.2912 83.2006 74.2912C82.8654 74.2912 82.626 74.0518 82.626 73.7166C82.626 73.3814 82.8654 73.142 83.2006 73.142C83.4879 73.0941 83.7752 73.3814 83.7752 73.7166Z" fill="#E46341"/>
<path d="M85.0683 76.7334C85.0683 77.0686 84.8288 77.3081 84.4936 77.3081C84.1584 77.3081 83.919 77.0686 83.919 76.7334C83.919 76.3982 84.1584 76.1588 84.4936 76.1588C84.8288 76.1588 85.0683 76.3982 85.0683 76.7334Z" fill="#E46341"/>
<path d="M76.1136 73.9561C76.1136 74.2913 75.8741 74.5307 75.5389 74.5307C75.2037 74.5307 74.9643 74.2913 74.9643 73.9561C74.9643 73.6209 75.2037 73.3815 75.5389 73.3815C75.8741 73.3815 76.1136 73.6209 76.1136 73.9561Z" fill="#E46341"/>
<path d="M81.2371 77.2122C81.2371 77.5474 80.9977 77.7868 80.6625 77.7868C80.3273 77.7868 80.0878 77.5474 80.0878 77.2122C80.0878 76.877 80.3273 76.6376 80.6625 76.6376C80.9977 76.6376 81.2371 76.877 81.2371 77.2122Z" fill="#E46341"/>
<path d="M73.4318 80.3727C73.4318 80.7079 73.1924 80.9473 72.8572 80.9473C72.522 80.9473 72.2825 80.7079 72.2825 80.3727C72.2825 80.0375 72.522 79.798 72.8572 79.798C73.1445 79.798 73.4318 80.0375 73.4318 80.3727Z" fill="#E46341"/>
<path d="M84.4935 81.2347H71.3728V83.7248H84.4935V81.2347Z" fill="#E46341"/>
<path d="M89.5214 35.791C89.5214 35.791 89.8087 37.8022 91.9157 37.4192C94.0227 37.0361 94.5494 33.9714 94.5494 33.9714H95.6029L97.231 34.2108C97.231 34.2108 100.631 34.3545 102.642 39.7177C104.653 45.0809 107.095 53.5567 107.095 53.5567L101.062 55.6158L90.2876 55.7115C90.2876 55.7115 87.8933 38.0896 88.5158 37.1797C88.4679 37.1797 88.8031 36.3178 89.5214 35.791Z" fill="white"/>
<path d="M70.6544 56.3341L79.4654 52.3116L86.744 64.0437L74.7726 69.5026L70.6544 56.3341Z" fill="#FAC46A"/>
<path d="M85.7863 63.5648L85.4032 63.3733C86.9834 60.4044 87.7975 55.5679 86.4567 53.0778C85.9778 52.168 85.2595 51.6413 84.3018 51.5455C81.0935 51.2582 80.3752 55.4242 80.3752 55.6158L79.9442 55.5679C79.9442 55.52 80.7583 50.7314 84.3497 51.1145C85.4511 51.2103 86.313 51.8328 86.8877 52.8863C88.2285 55.4721 87.4144 60.5001 85.7863 63.5648Z" fill="#FAC46A"/>
<path d="M74.7723 69.5026L63.9501 60.4043L64.4769 60.1649L74.4371 65.576L74.7723 69.5026Z" fill="#FAC46A"/>
<path d="M62.8491 62.3676L63.9984 58.3931L65.1955 60.9311L62.8491 62.3676Z" fill="#FAC46A"/>
<path d="M70.9418 56.5255C70.9418 56.4777 70.5587 55.7115 70.7502 54.7059C70.9418 53.7961 71.6122 52.4553 73.8149 51.4497C77.55 49.7258 79.3697 52.5989 79.3697 52.6468L78.9866 52.8862C78.9387 52.7905 77.3585 50.3004 74.0065 51.8806C72.3783 52.5989 71.4206 53.6524 71.1812 54.8017C71.0375 55.6636 71.3249 56.334 71.3249 56.334L70.9418 56.5255Z" fill="#FAC46A"/>
<path d="M96.3691 36.3179C97.5662 34.9292 99.769 35.0728 100.775 36.6052C101.828 38.1854 102.929 41.3459 103.36 44.5542C104.558 53.6525 102.929 53.7962 99.6732 53.6525C99.6732 53.6525 98.907 43.1176 96.3691 38.9037C95.8424 38.0896 95.7466 37.0361 96.3691 36.3179Z" fill="#EDA370"/>
<path d="M97.3747 44.6022L104.318 42.2558C104.318 42.2558 100.87 32.7265 96.6085 34.4025C92.3945 36.0306 97.3747 44.6022 97.3747 44.6022Z" fill="white"/>
<path d="M88.4679 37.1797C88.4679 37.1797 88.8031 40.7233 90.3354 47.4273L95.555 46.2301C95.555 46.2301 93.8311 36.7488 95.555 33.9714C96.6563 33.9714 97.1831 34.2108 97.1831 34.2108C97.1831 34.2108 93.9747 39.2388 99.8168 52.9342L101.014 55.5679L107 53.5088C107 53.5088 108.676 56.1425 107.287 66.0549C105.946 75.9672 104.749 86.1669 104.749 86.1669H98.8591L98.5239 65.3366L95.555 86.1669H89.9523V57.2439L87.7975 42.0641C87.7975 42.0641 86.8398 38.329 88.4679 37.1797Z" fill="#F7BCC0"/>
<path d="M89.5216 57.3398C95.9383 57.1961 101.254 55.2807 101.254 55.2807" stroke="#E283B5" stroke-width="0.5043" stroke-miterlimit="10" stroke-linecap="round" stroke-linejoin="round"/>
<path d="M103.217 86.5021C103.217 86.5021 106.713 64.3788 106.713 60.0212C106.713 55.6636 105.324 52.8862 105.324 52.8862" stroke="#E283B5" stroke-width="0.5043" stroke-miterlimit="10" stroke-linecap="round" stroke-linejoin="round"/>
<path d="M94.3099 56.9567L95.9381 65.3367L98.4281 66.055L96.5606 56.5257" stroke="#E283B5" stroke-width="0.5043" stroke-miterlimit="10" stroke-linecap="round" stroke-linejoin="round"/>
<path d="M94.3099 86.1668L97.1352 65.8154" stroke="#E283B5" stroke-width="0.5043" stroke-miterlimit="10" stroke-linecap="round" stroke-linejoin="round"/>
<path d="M101.78 54.6102C101.78 54.6102 102.355 62.5593 106.569 62.5593" stroke="#E283B5" stroke-width="0.5043" stroke-miterlimit="10" stroke-linecap="round" stroke-linejoin="round"/>
<path d="M88.3723 47.7146L90.8145 47.1878L97.71 45.6076" stroke="#E283B5" stroke-width="0.5043" stroke-miterlimit="10" stroke-linecap="round" stroke-linejoin="round"/>
<path d="M97.3269 45.6555L96.6565 47.0921L95.5551 46.1344" stroke="#E283B5" stroke-width="0.5043" stroke-miterlimit="10" stroke-linecap="round" stroke-linejoin="round"/>
<path d="M90.2876 47.2358L89.6172 48.6724L88.5159 47.6668" stroke="#E283B5" stroke-width="0.5043" stroke-miterlimit="10" stroke-linecap="round" stroke-linejoin="round"/>
<path d="M90.8145 49.0554L95.9383 47.954C95.9383 47.954 96.8002 51.2582 93.975 51.737C91.1497 52.2159 90.8145 49.0554 90.8145 49.0554Z" fill="#E283B5"/>
<path d="M87.3188 52.8385L87.4625 54.1793C87.4625 54.1793 103.408 55.9511 103.073 52.0723C102.69 48.1936 87.3188 52.8385 87.3188 52.8385Z" fill="#EDA370"/>
<path d="M48.196 48.1457H39.5766L37.9963 37.8502H49.7284L48.196 48.1457Z" fill="#E283B5"/>
<path d="M36.3204 33.6363C39.2894 34.3067 40.295 36.6531 40.5823 37.8503H42.1625C41.5879 36.27 39.9598 32.9659 36.3204 33.6363Z" fill="#37BD9C"/>
<path d="M41.9706 32.3434C43.8861 34.3546 43.6466 36.5574 43.3114 37.8503H45.3705C45.2269 35.9828 44.6044 33.4927 41.9706 32.3434Z" fill="#37BD9C"/>
<path d="M37.9963 30.9548C41.3962 32.9181 41.7793 36.1743 41.7314 37.8024H43.6469C43.4074 35.456 42.3539 31.5294 37.9963 30.9548Z" fill="#37BD9C"/>
<path d="M51.4044 33.6364C47.7651 33.0139 46.137 36.2701 45.5624 37.8503H47.1426C47.4778 36.6532 48.4355 34.3068 51.4044 33.6364Z" fill="#37BD9C"/>
<path d="M50.4946 30.9548C46.137 31.5294 45.0835 35.4082 44.8441 37.8024H46.7595C46.7116 36.1743 47.0947 32.966 50.4946 30.9548Z" fill="#37BD9C"/>
<path d="M47.382 30.1885C44.03 32.104 44.03 35.5039 44.5568 37.8503H46.5201C45.8018 36.27 45.0356 33.2532 47.382 30.1885Z" fill="#37BD9C"/>
<path d="M42.9765 37.8502H42.4977C42.4977 30.8589 40.1513 27.0759 40.1034 27.028L40.4865 26.7886C40.6301 26.9322 42.9765 30.7152 42.9765 37.8502Z" fill="#56C7AB"/>
<path d="M44.7483 37.8502H44.2694C44.2694 32.2955 46.0412 27.6505 46.0891 27.6027L46.52 27.7942C46.52 27.8421 44.7483 32.4391 44.7483 37.8502Z" fill="#56C7AB"/>
<path d="M43.8863 37.8503H43.4075C43.4075 29.0872 44.5567 23.4367 44.5567 23.3409L45.0356 23.4367C45.0356 23.5324 43.8863 29.1829 43.8863 37.8503Z" fill="#56C7AB"/>
<path d="M40.2947 27.6506C40.8765 27.6506 41.3482 27.1789 41.3482 26.5971C41.3482 26.0152 40.8765 25.5436 40.2947 25.5436C39.7129 25.5436 39.2412 26.0152 39.2412 26.5971C39.2412 27.1789 39.7129 27.6506 40.2947 27.6506Z" fill="#E46341"/>
<path d="M44.844 24.107C45.4258 24.107 45.8975 23.6353 45.8975 23.0535C45.8975 22.4717 45.4258 22 44.844 22C44.2622 22 43.7905 22.4717 43.7905 23.0535C43.7905 23.6353 44.2622 24.107 44.844 24.107Z" fill="#E46341"/>
<path d="M46.2804 28.7041C46.8622 28.7041 47.3339 28.2324 47.3339 27.6506C47.3339 27.0688 46.8622 26.5971 46.2804 26.5971C45.6986 26.5971 45.2269 27.0688 45.2269 27.6506C45.2269 28.2324 45.6986 28.7041 46.2804 28.7041Z" fill="#E46341"/>
<path d="M49.7284 37.8502H37.9963V40.1487H49.7284V37.8502Z" fill="#E283B5"/>
<path d="M46.0889 79.6067H46.3762L46.2326 78.8405L46.0889 79.6067Z" fill="#452A32"/>
<path d="M48.1004 80.6123L48.3398 80.8039L48.7708 80.1335L48.1004 80.6123Z" fill="#452A32"/>
<path d="M44.3175 80.6123L44.1259 80.8039L43.6949 80.1335L44.3175 80.6123Z" fill="#452A32"/>
<path d="M43.3597 83.0544L43.2639 83.3417L42.5457 83.0065L43.3597 83.0544Z" fill="#452A32"/>
<path d="M49.1061 83.0544L49.154 83.3417L49.8723 83.0065L49.1061 83.0544Z" fill="#452A32"/>
<path d="M43.0245 85.736L42.9766 86.0712L42.2584 85.736H43.0245Z" fill="#452A32"/>
<path d="M49.1539 85.736L49.2018 86.0712L49.9201 85.736H49.1539Z" fill="#452A32"/>
<path d="M49.2016 94.7864H42.9765L41.8751 87.3641H50.303L49.2016 94.7864Z" fill="#FAC46A"/>
<path d="M42.9288 87.3641C42.9288 87.3641 42.4021 79.5587 46.2329 79.5587C50.0638 79.5587 49.1061 87.3641 49.1061 87.3641H42.9288Z" fill="#56C7AB"/>
<path d="M50.303 87.3641H41.8751V89.3753H50.303V87.3641Z" fill="#EDA370"/>
<path d="M46.0889 82.1446H46.3762L46.2326 81.3785L46.0889 82.1446Z" fill="#452A32"/>
<path d="M46.0889 86.5021H46.3762L46.2326 85.736L46.0889 86.5021Z" fill="#452A32"/>
<path d="M44.7963 84.3475L45.0836 84.2038L44.5568 83.5813L44.7963 84.3475Z" fill="#452A32"/>
<path d="M47.6692 84.3475L47.3819 84.2038L47.8608 83.5813L47.6692 84.3475Z" fill="#452A32"/>
<path d="M70.8462 88.1302C70.8462 88.1302 72.8095 86.2147 71.7082 81.8571C69.8885 85.257 69.8885 88.1302 69.8885 88.1302H70.8462Z" fill="#56C7AB"/>
<path d="M68.2601 88.1301C68.2601 88.1301 66.2968 85.7358 67.3981 80.3726C69.2178 84.5866 69.2178 88.1301 69.2178 88.1301H68.2601Z" fill="#37BD9C"/>
<path d="M69.3136 88.1303C69.3136 88.1303 67.3503 84.7304 68.4517 77.0208C70.2713 83.0544 70.2713 88.1303 70.2713 88.1303H69.3136Z" fill="#56C7AB"/>
<path d="M69.601 88.1302C69.601 88.1302 71.5643 85.3528 70.463 79.0319C68.6433 83.9642 68.6433 88.1302 68.6433 88.1302H69.601Z" fill="#37BD9C"/>
<path d="M72.6656 94.7863H66.4405L65.3391 87.364H73.767L72.6656 94.7863Z" fill="#E283B5"/>
<path d="M73.767 87.364H65.3391V89.3752H73.767V87.364Z" fill="#F7BCC0"/>
<path d="M88.0372 24.2985C88.0372 24.2985 88.4681 30.1884 93.7835 28.704C93.7835 25.1126 91.5328 23.5323 88.0372 24.2985Z" fill="white"/>
<path d="M26.2164 29.7096C26.2164 29.7096 29.329 31.3377 31.6275 25.783C32.9683 27.9857 33.9739 28.3688 33.9739 28.3688C33.9739 28.3688 35.1232 24.4901 30.0952 24.4901C25.0672 24.4901 26.2164 29.7096 26.2164 29.7096Z" fill="white"/>
<path d="M21.9546 93.302L22.3377 91.8654C22.3377 91.8654 25.6418 92.6316 25.6418 93.5893C25.6418 94.547 23.9658 94.4991 21.38 94.1639C18.7942 93.8766 18.1238 93.8766 18.8899 92.0091C19.5603 93.1104 21.9546 93.302 21.9546 93.302Z" fill="#452A32"/>
<path d="M35.7456 93.302L36.1287 91.8654C36.1287 91.8654 39.4328 92.6316 39.4328 93.5893C39.4328 94.547 37.7568 94.4991 35.1709 94.1639C32.5851 93.8766 31.9147 93.8766 32.6809 92.0091C33.3034 93.1104 35.7456 93.302 35.7456 93.302Z" fill="#452A32"/>
<path d="M91.3411 92.009L91.1974 91.6259L91.9636 91.2429L92.4425 92.2006C92.4425 92.2006 93.2086 92.1527 94.2142 91.6259C94.6452 92.5837 95.0762 93.8766 92.8256 93.9724C90.527 94.0681 88.7553 94.547 87.4145 94.116C86.0737 93.6371 87.1272 92.5837 90.144 91.9133L90.3355 92.3921C90.4313 92.6794 90.7665 92.8231 91.0538 92.7273C91.2932 92.5837 91.4369 92.2963 91.3411 92.009Z" fill="#452A32"/>
<path d="M102.451 91.2429C102.451 91.2429 98.6676 91.5302 96.0818 92.9668C95.172 93.8766 97.0874 94.4991 99.1944 93.8766C101.301 93.2541 102.69 93.9724 102.929 92.5837C103.073 91.7696 102.451 91.2429 102.451 91.2429Z" fill="#EDA370"/>
<path d="M99.9607 92.009L99.8171 91.6259L100.583 91.2429L101.062 92.2006C101.062 92.2006 101.828 92.1527 102.834 91.6259C103.265 92.5837 103.696 93.8766 101.445 93.9724C99.1467 94.0681 97.3749 94.547 96.0341 94.116C94.6933 93.6371 95.7468 92.5837 98.7636 91.9133L98.9551 92.3921C99.0509 92.6794 99.3861 92.8231 99.6734 92.7273C99.9128 92.5837 100.057 92.2963 99.9607 92.009Z" fill="#452A32"/>
<path d="M39.1934 48.6724C39.1934 48.6724 40.3426 48.2415 42.6411 48.1457C44.4129 48.1457 44.7481 48.1457 44.7481 48.1457C44.7481 48.1457 44.3171 49.5823 42.1144 49.5823C40.0553 49.8217 39.5764 50.1569 39.5764 50.1569L39.1934 48.6724Z" fill="#EDA370"/>
<path d="M40.5342 48.3851C40.5342 48.3851 42.5454 47.1879 42.6412 47.4753C42.7848 47.7626 41.4919 48.3851 41.4919 48.3851H40.5342Z" fill="#EDA370"/>
<path d="M89.9523 52.168C89.9523 52.168 87.2707 51.8807 86.2172 52.0723C85.1637 52.2638 85.5468 53.9877 86.2172 55.0891C86.8876 56.1904 90.048 53.9398 90.048 53.9398L89.9523 52.168Z" fill="#EDA370"/>
<path d="M70.3195 53.6047C70.3195 53.6047 69.7927 54.8497 70.511 55.2328C71.2293 55.6159 72.0912 55.5201 72.187 55.2328C72.2828 54.9455 72.618 53.9399 72.187 53.2216C71.756 52.5033 71.0856 51.9766 71.0856 51.9766C71.0856 51.9766 70.6068 52.3596 70.3195 53.6047Z" fill="#EDA370"/>
<path d="M89.761 86.1669V83.5811H96.3213L95.9383 86.1669H89.761Z" fill="#E283B5"/>
<path d="M98.7632 86.1669V83.5811H105.324L104.941 86.1669H98.7632Z" fill="#E283B5"/>
<path d="M22.0981 42.7346L28.5148 40.484C28.5148 40.484 27.9402 35.025 23.9178 36.3658C19.8954 37.7066 22.0981 42.7346 22.0981 42.7346Z" fill="#E46341"/>
<path d="M38.4753 40.1008H49.3933L49.2018 41.4895L38.4753 40.1008Z" fill="#C15F97"/>
<path d="M96.752 47.9062C97.0165 47.9062 97.2308 47.6918 97.2308 47.4273C97.2308 47.1629 97.0165 46.9485 96.752 46.9485C96.4875 46.9485 96.2731 47.1629 96.2731 47.4273C96.2731 47.6918 96.4875 47.9062 96.752 47.9062Z" fill="#E283B5"/>
<path d="M89.7608 49.6302C90.0253 49.6302 90.2397 49.4158 90.2397 49.1513C90.2397 48.8869 90.0253 48.6725 89.7608 48.6725C89.4964 48.6725 89.282 48.8869 89.282 49.1513C89.282 49.4158 89.4964 49.6302 89.7608 49.6302Z" fill="#E283B5"/>
</svg>
