<svg width="127" height="79" viewBox="0 0 127 79" fill="none" xmlns="http://www.w3.org/2000/svg">
<path d="M126.256 25.0832V10.0979H116.716V0.45459H99.7152V10.0979H29.8045C10.8495 10.0979 0 26.417 0 44.055C0 62.5195 9.15222 79 33.4814 79H77.803C108.54 79 116.719 61.4349 116.719 47.486V25.0832H126.256Z" fill="white"/>
<path d="M105.367 36.8406V48.3395C105.408 51.2985 104.772 54.2292 103.504 56.9187C102.626 58.7327 101.436 60.388 99.9879 61.8136C97.6821 64.0382 94.9001 65.7389 91.8409 66.7942C88.367 68.0011 84.702 68.6023 81.0139 68.57H31.9959C28.9364 68.6064 25.9063 67.9848 23.1216 66.7497C21.2279 65.8897 19.4956 64.7267 17.9965 63.3088C15.6689 61.0691 13.8777 58.3565 12.7506 55.3645C11.4756 51.9978 10.8379 48.4338 10.8686 44.8455V44.1061C10.8474 40.8956 11.3525 37.7024 12.3649 34.6471C13.8295 30.3386 16.2948 26.7895 19.5659 24.3158C21.234 23.054 23.1099 22.0772 25.1137 21.427C27.3347 20.7172 29.6595 20.3639 31.997 20.3812H88.5803V14.4378H31.9959C28.0465 14.4014 24.1373 15.2126 20.546 16.8138C15.5241 19.1343 11.4052 22.9718 8.80168 27.7556C6.13925 32.5102 4.77119 38.1343 4.77007 44.1053V44.844C4.74885 48.6881 5.35768 52.5109 6.57358 56.168C8.36137 61.4408 11.4832 66.0438 15.8261 69.3276C18.0367 70.9993 20.522 72.2942 23.1766 73.1573C26.0221 74.0711 29.001 74.5284 31.997 74.5115H81.0109C84.9431 74.5338 88.8551 73.9626 92.6078 72.818C95.266 72.0009 97.7962 70.8313 100.127 69.3422C103.573 67.1533 106.412 64.1705 108.393 60.6577C110.464 56.8682 111.521 52.6312 111.466 48.3384V36.8406H105.367Z" fill="#94CC00"/>
<path d="M103.237 32.1302H113.211V22.3819H123.215V12.6639H113.211V2.91748H103.237V12.6639H93.2265V22.3819H103.237V32.1302Z" fill="#109D48"/>
<path fill-rule="evenodd" clip-rule="evenodd" d="M40.4002 29.8478C39.3086 29.3653 37.1647 28.3566 32.9614 28.3536C27.2231 28.3478 20.2755 32.8029 20.2874 44.0015C20.2979 53.67 25.72 59.93 33.4398 59.9376C35.8437 59.9806 38.2366 59.6131 40.5102 58.8517L40.26 52.4652C38.5251 53.5146 36.5246 54.073 34.4824 54.0777C30.2791 54.073 27.0821 50.0454 27.0754 44.0963C27.0683 37.9284 29.8938 34.0382 34.3392 34.0419C36.3946 34.027 38.4028 34.6414 40.0804 35.7984L40.4002 29.8478Z" fill="#109D48"/>
<path fill-rule="evenodd" clip-rule="evenodd" d="M43.7657 59.4226L50.1522 59.4288L50.1171 26.6207L43.7305 26.6145L43.7657 59.4226Z" fill="#109D48"/>
<path fill-rule="evenodd" clip-rule="evenodd" d="M72.4936 36.6602L66.107 36.6547L66.1209 49.4273C66.1239 52.3583 65.3981 54.2829 63.3376 54.2799C62.044 54.2799 60.8712 53.534 60.8686 50.6908L60.854 36.6485L54.4675 36.6427L54.4843 51.5595C54.4892 56.1082 56.0289 59.7838 60.6767 59.7893C64.0319 59.7925 65.6462 58.1319 66.6128 55.6392H66.6944C66.6944 57.1698 66.7778 58.4391 66.8601 59.4452L72.6799 59.4511C72.5575 58.2704 72.516 56.8699 72.5134 54.683L72.4936 36.6602Z" fill="#109D48"/>
<path fill-rule="evenodd" clip-rule="evenodd" d="M89.2989 48.095C89.3019 50.4579 89.1451 54.8313 86.2354 54.8284C83.6078 54.8258 83.0373 50.7129 83.0351 48.0866C83.0309 44.4558 83.6336 41.0449 86.2205 41.0463C89.049 41.0496 89.2951 44.4617 89.2989 48.0931V48.095ZM76.6545 54.3353C76.6575 57.2226 76.5797 58.4033 76.4974 59.4529L82.5603 59.459C82.6408 58.5844 82.7201 57.4033 82.7186 55.8287H82.7997C83.4481 57.2292 84.8644 59.8107 88.5432 59.8147C93.2721 59.8195 95.9338 54.7919 95.926 47.5308C95.9203 41.406 93.8123 36.3289 88.5189 36.3238C85.5688 36.3209 83.873 37.9819 83.1072 40.0369H83.0264L83.0119 26.6513L76.6264 26.6444L76.6545 54.3353Z" fill="#109D48"/>
</svg>
